<?xml version="1.0" encoding="utf-8"?>
<!-- Generator: Adobe Illustrator 16.0.0, SVG Export Plug-In . SVG Version: 6.00 Build 0)  -->
<!DOCTYPE svg PUBLIC "-//W3C//DTD SVG 1.1//EN" "http://www.w3.org/Graphics/SVG/1.1/DTD/svg11.dtd">
<svg version="1.1" id="Layer_1" xmlns:svgjs="http://svgjs.com/svgjs"
	 xmlns="http://www.w3.org/2000/svg" xmlns:xlink="http://www.w3.org/1999/xlink" x="0px" y="0px" width="288px" height="288px"
	 viewBox="0 0 288 288" enable-background="new 0 0 288 288" xml:space="preserve">
<g id="SvgjsG1008" transform="matrix(0.9167,0,0,0.9167,11.995200000000011,11.995198093414302)">
	<g>
		<path fill="#FFFFFF" d="M288,126h-36V90h-18v36h-36v18h36v36h18v-36h36V126z"/>
		<path fill="#FFFFFF" d="M90,162h50.921c-7.655,21.557-28.043,35.971-50.921,36c-29.772,0-54-24.228-54-54s24.228-54,54-54
			c12.906,0,25.327,4.627,34.974,13.032l23.652-27.144C132.369,61.751,111.544,53.976,90,54C40.374,54,0,94.374,0,144
			s40.374,90,90,90s90-40.374,90-90v-18H90V162z"/>
	</g>
</g>
</svg>
