<?xml version="1.0" encoding="utf-8"?>
<!-- Generator: Adobe Illustrator 16.0.0, SVG Export Plug-In . SVG Version: 6.00 Build 0)  -->
<!DOCTYPE svg PUBLIC "-//W3C//DTD SVG 1.1//EN" "http://www.w3.org/Graphics/SVG/1.1/DTD/svg11.dtd">
<svg version="1.1" id="SvgjsSvg1001" xmlns:svgjs="http://svgjs.com/svgjs"
	 xmlns="http://www.w3.org/2000/svg" xmlns:xlink="http://www.w3.org/1999/xlink" x="0px" y="0px" width="288px" height="288px"
	 viewBox="0 0 288 288" enable-background="new 0 0 288 288" xml:space="preserve">
<g id="SvgjsG1008" transform="matrix(0.9167,0,0,0.9167,11.99520762634279,11.995196186828622)">
	<title>Twitter-color</title>
	<g id="Icons">
		<g id="Color-" transform="translate(-300.000000, -164.000000)">
			<path id="Twitter" fill="#FFFFFF" d="M588,216.411c-10.754,4.898-22.198,8.115-33.93,9.539
				c12.421-7.666,21.649-19.57,25.98-33.51c-11.565,7.042-24.269,12.01-37.541,14.682C531.762,195.35,516.396,188,499.386,188
				c-32.61,0-59.064,27.126-59.064,60.588c0,4.746,0.509,9.36,1.523,13.8c-49.11-2.539-92.64-26.628-121.8-63.33
				c-5.259,9.3-8.013,19.807-7.992,30.492c0,21.012,10.428,39.558,26.281,50.429c-9.406-0.311-18.594-2.905-26.773-7.559v0.744
				c0,29.364,20.371,53.862,47.419,59.407c-5.064,1.435-10.306,2.155-15.57,2.136c-3.803,0-7.523-0.366-11.124-1.08
				c7.524,24.06,29.328,41.592,55.194,42.06c-20.22,16.26-45.709,25.95-73.38,25.95c-4.77,0-9.48-0.282-14.1-0.834
				C326.154,417.962,357.223,428,390.576,428c108.69,0,168.114-92.31,168.114-172.38c0-2.634-0.054-5.269-0.156-7.848
				C570.147,239.158,580.126,228.537,588,216.411"/>
		</g>
	</g>
</g>
</svg>
